<svg width="67" height="67" viewBox="0 0 67 67" fill="none" xmlns="http://www.w3.org/2000/svg">
<g id="car (2)">
<g id="Layer_x0020_1">
<g id="_309063152">
<path id="_309065120" fill-rule="evenodd" clip-rule="evenodd" d="M55.8702 41.2153C55.51 41.2153 55.2174 40.9242 55.216 40.5637C55.2145 40.202 55.5062 39.9083 55.8676 39.9068C60.3242 39.8886 61.2411 39.8559 61.3912 39.8379C62.0163 39.7386 62.1358 39.4308 62.1581 39.3318V37.1284C62.172 33.8729 61.6625 33.374 61.4177 33.1343C61.3896 33.1065 61.3629 33.0804 61.3377 33.0547C59.359 31.0112 49.9175 29.7526 45.5382 29.5615C45.3764 29.5541 45.223 29.4876 45.1076 29.374C40.9271 25.2577 35.6897 22.8003 31.0974 22.8003L24.7693 22.8002C22.1023 22.8002 17.6679 24.5352 12.283 27.6853C11.4177 28.1916 9.43638 28.9091 7.98967 29.4331C7.77283 29.5115 7.57043 29.5848 7.38917 29.6511C7.31715 29.6774 7.24107 29.691 7.16433 29.691L5.18022 29.6909C4.99375 29.6909 4.84193 29.8428 4.84193 30.0293V37.0483C4.82845 38.4699 5.54471 38.7052 5.66476 38.7347C5.70344 38.7391 5.71442 38.7441 5.75476 38.757L9.09732 39.8313C9.4455 39.8328 10.676 39.8375 12.5393 39.8441C12.9006 39.845 13.1925 40.1393 13.1912 40.5006C13.1899 40.8611 12.8972 41.1526 12.537 41.1526C12.5362 41.1524 12.5354 41.1526 12.5346 41.1526C10.3131 41.1445 8.99087 41.1395 8.99087 41.1395C8.92379 41.1392 8.85717 41.1286 8.79326 41.1081L5.3939 40.0156C4.70955 39.8751 3.51393 39.0982 3.53344 37.0422L3.53336 30.0292C3.53336 29.1211 4.27219 28.3826 5.18022 28.3826L7.04857 28.3823C7.202 28.3264 7.36831 28.2663 7.54408 28.2026C8.86447 27.7244 10.8599 27.0018 11.6222 26.5559C15.5714 24.2457 21.058 21.4918 24.7693 21.4918L31.0974 21.4916C35.9589 21.4916 41.4557 24.0203 45.8463 28.2665C48.9163 28.4329 59.7248 29.508 62.2779 32.1443C62.2952 32.1622 62.3137 32.1803 62.3332 32.1995C62.915 32.7692 63.4817 33.6193 63.4666 37.1315V39.3798C63.4666 39.3942 63.4662 39.4089 63.4652 39.4233C63.4299 39.9527 62.995 40.9082 61.5884 41.1315C61.4607 41.1515 61.1949 41.1939 55.8729 41.2153C55.8719 41.2153 55.871 41.2154 55.8702 41.2153ZM47.1897 41.2288C38.8703 41.2285 28.4732 41.2026 21.2165 41.1809C20.855 41.1797 20.5631 40.8862 20.564 40.5248C20.5652 40.164 20.8579 39.8724 21.2183 39.8724C21.2191 39.8723 21.2196 39.8724 21.2203 39.8724C28.4764 39.8941 38.8719 39.92 47.1897 39.9202C47.551 39.9202 47.8441 40.2132 47.8441 40.5745C47.8439 40.9356 47.551 41.2288 47.1897 41.2288Z" fill="black"/>
<path id="_309064496" fill-rule="evenodd" clip-rule="evenodd" d="M5.09448 32.6968H4.18769C3.82633 32.6968 3.53333 32.404 3.53333 32.0427C3.53333 31.681 3.82633 31.3882 4.18769 31.3882L5.09448 31.3882C5.87504 31.3882 6.50997 30.7533 6.50997 29.9729V29.0364C6.50997 28.6755 6.80294 28.3826 7.16429 28.3826C7.52561 28.3823 7.81858 28.6755 7.81858 29.0367V29.9728C7.81858 31.4749 6.5966 32.6969 5.09448 32.6968Z" fill="black"/>
<path id="_309064376" fill-rule="evenodd" clip-rule="evenodd" d="M62.6194 34.9371H60.076C57.942 34.9371 56.2057 33.2011 56.2057 31.0671V30.4935C56.2057 30.1322 56.4986 29.8392 56.86 29.8392C57.2213 29.839 57.5142 30.1323 57.5142 30.4935V31.067C57.5142 32.4796 58.6634 33.6287 60.076 33.6287L62.6194 33.6285C62.9808 33.6285 63.2737 33.9217 63.2737 34.2831C63.2737 34.6442 62.9808 34.9373 62.6194 34.9371Z" fill="black"/>
<path id="_309064208" fill-rule="evenodd" clip-rule="evenodd" d="M16.8777 36.8263C14.8448 36.8263 13.191 38.4802 13.191 40.5131C13.191 42.5457 14.8448 44.1997 16.8777 44.1997C18.9106 44.1997 20.5642 42.5459 20.5642 40.5131C20.5642 38.48 18.9106 36.8264 16.8777 36.8263ZM16.8777 45.5084C14.1232 45.5084 11.8824 43.2674 11.8824 40.5131C11.8824 37.7584 14.1232 35.5179 16.8777 35.5179C19.632 35.5177 21.8727 37.7586 21.8727 40.5131C21.8727 43.2674 19.632 45.5084 16.8777 45.5084Z" fill="black"/>
<path id="_309064136" fill-rule="evenodd" clip-rule="evenodd" d="M51.5298 36.8263C49.497 36.8263 47.8432 38.4802 47.8432 40.5131C47.8432 42.5457 49.497 44.1997 51.5298 44.1997C53.5627 44.1997 55.2163 42.5459 55.2163 40.5131C55.2164 38.48 53.5627 36.8264 51.5298 36.8263ZM51.5298 45.5084C48.7754 45.5084 46.5347 43.2674 46.5347 40.5131C46.5347 37.7584 48.7754 35.5179 51.5298 35.5179C54.2842 35.5177 56.525 37.7586 56.525 40.5131C56.525 43.2674 54.2842 45.5084 51.5298 45.5084Z" fill="black"/>
<path id="_309063992" fill-rule="evenodd" clip-rule="evenodd" d="M29.8626 29.5618C29.5013 29.5618 29.2084 29.2691 29.2084 28.9078V22.1458C29.2084 21.7845 29.5013 21.4918 29.8626 21.4918C30.224 21.4916 30.5169 21.7847 30.5169 22.146L30.5169 28.9077C30.5169 29.2689 30.224 29.562 29.8626 29.5618Z" fill="black"/>
<path id="_309063896" fill-rule="evenodd" clip-rule="evenodd" d="M45.5665 29.5618H14.9484C14.5871 29.5618 14.2942 29.2691 14.2942 28.9078C14.2942 28.5464 14.5871 28.2535 14.9484 28.2535H45.5665C45.9279 28.2535 46.2208 28.5464 46.2208 28.9078C46.2208 29.2689 45.9279 29.562 45.5665 29.5618Z" fill="black"/>
<path id="_309064112" fill-rule="evenodd" clip-rule="evenodd" d="M14.9485 29.5618C14.781 29.5618 14.6136 29.4982 14.4859 29.3704L12.2563 27.1409C12.0008 26.8851 12.0008 26.471 12.2563 26.2156C12.5118 25.9598 12.9262 25.96 13.1816 26.2156L15.4112 28.4449C15.6666 28.7007 15.6666 29.1149 15.4112 29.3704C15.2834 29.498 15.1159 29.562 14.9485 29.5618Z" fill="black"/>
<path id="_309064304" fill-rule="evenodd" clip-rule="evenodd" d="M14.4294 37.582H4.18769C3.82637 37.582 3.53345 37.2892 3.53345 36.9279C3.53345 36.5663 3.82637 36.2736 4.18769 36.2736L14.4294 36.2734C14.7907 36.2734 15.0836 36.5665 15.0836 36.9279C15.0836 37.2891 14.7907 37.5821 14.4294 37.582ZM49.0815 37.582H19.3259C18.9645 37.582 18.6716 37.2892 18.6716 36.9279C18.6717 36.5663 18.9645 36.2736 19.3259 36.2736L49.0815 36.2734C49.4429 36.2734 49.7358 36.5665 49.7358 36.9279C49.7358 37.2891 49.4428 37.5821 49.0815 37.582ZM62.8125 37.582H53.978C53.6167 37.582 53.3237 37.2892 53.3237 36.9279C53.3237 36.5663 53.6167 36.2736 53.978 36.2736L62.8125 36.2734C63.1739 36.2734 63.4668 36.5665 63.4668 36.9279C63.4668 37.2891 63.1739 37.5821 62.8125 37.582Z" fill="black"/>
<path id="_309064040" fill-rule="evenodd" clip-rule="evenodd" d="M33.1612 32.7114H31.8106C31.4493 32.7114 31.1562 32.4185 31.1562 32.0572C31.1562 31.6957 31.4493 31.4028 31.8106 31.4028L33.1612 31.4025C33.5225 31.4025 33.8155 31.6958 33.8155 32.0572C33.8155 32.4182 33.5225 32.7114 33.1612 32.7114Z" fill="black"/>
<path id="_309063824" fill-rule="evenodd" clip-rule="evenodd" d="M16.8777 39.5372C16.3398 39.5372 15.9022 39.9749 15.9022 40.5129C15.9022 41.0508 16.3398 41.4883 16.8777 41.4883C17.4156 41.4881 17.8532 41.0508 17.8532 40.5129C17.8532 39.9749 17.4156 39.5373 16.8777 39.5372ZM16.8777 42.7967C15.6182 42.7967 14.5936 41.7724 14.5936 40.5129C14.5936 39.2533 15.6182 38.2288 16.8777 38.2288C18.1371 38.2286 19.1617 39.2534 19.1617 40.5129C19.1617 41.7721 18.137 42.797 16.8777 42.7967Z" fill="black"/>
<path id="_309063200" fill-rule="evenodd" clip-rule="evenodd" d="M51.5298 39.5372C50.9918 39.5372 50.5541 39.9749 50.5541 40.5129C50.5542 41.0508 50.9918 41.4883 51.5298 41.4883C52.0677 41.4881 52.5052 41.0508 52.5052 40.5129C52.5052 39.9749 52.0677 39.5373 51.5298 39.5372ZM51.5298 42.7967C50.2704 42.7967 49.2456 41.7724 49.2456 40.5129C49.2456 39.2533 50.2703 38.2288 51.5298 38.2288C52.7891 38.2286 53.8137 39.2534 53.8137 40.5129C53.8137 41.7721 52.7891 42.797 51.5298 42.7967Z" fill="black"/>
</g>
</g>
</g>
</svg>
