<svg width="51" height="50" viewBox="0 0 51 50" fill="none" xmlns="http://www.w3.org/2000/svg">
<g id="car (3)" clip-path="url(#clip0_45_573)">
<g id="Group">
<g id="Group_2">
<path id="Vector" d="M46.3555 20.1017L29.5867 3.66172C27.2008 1.30932 23.9538 -0.00932535 20.5699 4.96492e-05H7.6499C5.3039 0.00286215 3.40277 1.86672 3.3999 4.16672V49.1667C3.3999 49.6269 3.78049 50 4.2499 50H29.2722C31.4495 49.9999 33.4528 48.834 34.4955 46.9601C36.7988 42.816 40.2722 39.4108 44.4991 37.1525C46.4105 36.1304 47.5998 34.1663 47.5999 32.0317V23.0475C47.6031 21.9421 47.155 20.8813 46.3555 20.1017ZM45.8999 32.0317C45.9 33.5567 45.0504 34.9599 43.6848 35.69C39.171 38.1005 35.4623 41.7364 33.0037 46.1617C32.2589 47.5006 30.8277 48.3335 29.2722 48.3334H5.0999V4.16672C5.0999 2.78599 6.24156 1.66672 7.6499 1.66672H20.5699C23.5023 1.6589 26.3161 2.80161 28.384 4.84005L45.1536 21.28C45.6299 21.7499 45.8981 22.385 45.8999 23.0475V32.0317Z" fill="black"/>
</g>
</g>
<g id="Group_3">
<g id="Group_4">
<path id="Vector_2" d="M42.251 21.0775L26.8906 6.01829C25.1411 4.29349 22.7605 3.32672 20.2793 3.33329H9.35005C7.9417 3.33329 6.80005 4.45256 6.80005 5.83329V21.6666C6.80005 22.1268 7.18064 22.5 7.65005 22.5H41.65C41.9938 22.5001 42.3038 22.2971 42.4354 21.9858C42.5671 21.6743 42.4942 21.3158 42.251 21.0775ZM28.9 20.8333H8.50005V5.83329C8.50005 5.37308 8.88064 4.99995 9.35005 4.99995H20.2793C22.3094 4.99454 24.2572 5.78547 25.6887 7.19662L28.9 10.345V20.8333ZM30.6 20.8333V12.0116L39.5981 20.8333H30.6Z" fill="black"/>
</g>
</g>
<g id="Group_5">
<g id="Group_6">
<path id="Vector_3" d="M39.95 25H34.85C33.4417 25 32.3 26.1193 32.3 27.5C32.3 28.8807 33.4417 30 34.85 30H39.95C41.3584 30 42.5 28.8807 42.5 27.5C42.5 26.1194 41.3584 25 39.95 25ZM39.95 28.3333H34.85C34.3806 28.3333 34 27.9602 34 27.5C34 27.0398 34.3806 26.6667 34.85 26.6667H39.95C40.4195 26.6667 40.8 27.0398 40.8 27.5C40.8 27.9602 40.4195 28.3333 39.95 28.3333Z" fill="black"/>
</g>
</g>
</g>
<defs>
<clipPath id="clip0_45_573">
<rect width="51" height="50" fill="white"/>
</clipPath>
</defs>
</svg>
