<svg width="51" height="51" viewBox="0 0 51 51" fill="none" xmlns="http://www.w3.org/2000/svg">
<g id="key">
<g id="21-Key">
<path id="Vector" d="M48.2884 22.6339C47.5748 21.9215 46.6088 21.5196 45.6004 21.5157C44.592 21.5118 43.6229 21.9061 42.9037 22.6129L36.0421 28.9758C35.6865 28.4016 35.1905 27.9275 34.6008 27.5982C34.0112 27.2689 33.3473 27.0953 32.6719 27.0938H16.8477C15.6961 27.0907 14.5554 27.3161 13.4916 27.7567C12.4277 28.1974 11.4618 28.8447 10.6497 29.6611L8.75547 31.5553C8.29564 31.1625 7.70659 30.9539 7.10201 30.9698C6.49743 30.9858 5.92019 31.2251 5.48169 31.6416L1.82729 35.296C1.6801 35.4459 1.59806 35.6479 1.59901 35.8579C1.59996 36.068 1.68383 36.2692 1.83237 36.4177C1.98092 36.5663 2.18211 36.6502 2.39218 36.6511C2.60225 36.6521 2.80419 36.57 2.95407 36.4228L6.60889 32.7684C6.76038 32.6231 6.96218 32.5419 7.1721 32.5419C7.38203 32.5419 7.58383 32.6231 7.73532 32.7684L18.2313 43.2648C18.3804 43.4144 18.4642 43.6169 18.4642 43.8281C18.4643 44.0393 18.3807 44.2419 18.2317 44.3916L14.5773 48.046C14.5022 48.1198 14.4425 48.2077 14.4015 48.3046C14.3606 48.4016 14.3393 48.5057 14.3388 48.6109C14.3383 48.7162 14.3587 48.8205 14.3988 48.9178C14.4388 49.0151 14.4977 49.1035 14.5722 49.1779C14.6466 49.2524 14.735 49.3113 14.8323 49.3514C14.9297 49.3914 15.0339 49.4118 15.1392 49.4113C15.2444 49.4108 15.3485 49.3895 15.4455 49.3486C15.5424 49.3076 15.6303 49.2479 15.7041 49.1728L19.3589 45.5184C19.7879 45.0865 20.0358 44.507 20.0518 43.8984C20.0678 43.2898 19.8509 42.6981 19.4452 42.2442L19.553 42.1363C20.003 41.6898 20.6109 41.4387 21.2449 41.4376H34.1782C35.564 41.4355 36.9296 41.1057 38.1637 40.475C39.3976 39.8444 40.465 38.9308 41.2784 37.8088L48.6538 27.6136C49.1997 26.8776 49.4631 25.9699 49.3961 25.0559C49.329 24.142 48.9359 23.2825 48.2884 22.6339ZM47.3663 26.6744L39.9874 36.875C39.3218 37.7928 38.4485 38.5403 37.4389 39.0562C36.4293 39.5722 35.312 39.8421 34.1781 39.8438H21.2449C20.1885 39.8462 19.1757 40.2651 18.4262 41.0095L18.3282 41.1076L9.89271 32.6717L11.7765 30.7879C12.441 30.12 13.2313 29.5905 14.1018 29.2299C14.9722 28.8694 15.9055 28.6851 16.8477 28.6876H32.6719C33.306 28.6876 33.914 28.9394 34.3624 29.3878C34.8107 29.8361 35.0626 30.4441 35.0626 31.0782C35.0626 31.7122 34.8107 32.3203 34.3624 32.7686C33.914 33.2169 33.306 33.4688 32.6719 33.4688H24.7032C24.4918 33.4688 24.2892 33.5528 24.1397 33.7022C23.9903 33.8516 23.9063 34.0543 23.9063 34.2657C23.9063 34.477 23.9903 34.6797 24.1397 34.8292C24.2892 34.9786 24.4918 35.0626 24.7032 35.0626H32.6719C33.7283 35.0613 34.741 34.6411 35.4879 33.8942C36.2349 33.1472 36.6551 32.1345 36.6563 31.0782C36.6499 30.9257 36.6345 30.7737 36.6103 30.6229L44.0091 23.7608C44.4341 23.3561 44.9985 23.1304 45.5854 23.1304C46.1722 23.1304 46.7366 23.3561 47.1616 23.7608C47.5403 24.1407 47.7695 24.6443 47.8071 25.1794C47.8447 25.7145 47.6882 26.2452 47.3663 26.6744ZM17.5313 22.3126C19.4247 22.3076 21.2807 21.7854 22.8989 20.8023C24.517 19.8192 25.8357 18.4126 26.7125 16.7344H32.6719C32.8833 16.7344 33.0859 16.6504 33.2353 16.5009L35.0626 14.6738L36.8898 16.501C36.9638 16.575 37.0516 16.6337 37.1483 16.6738C37.2449 16.7138 37.3486 16.7345 37.4532 16.7345C37.5579 16.7345 37.6615 16.7138 37.7581 16.6738C37.8548 16.6337 37.9426 16.575 38.0166 16.501L39.8438 14.6738L41.671 16.501C41.745 16.575 41.8329 16.6337 41.9295 16.6738C42.0262 16.7138 42.1298 16.7345 42.2345 16.7345C42.3391 16.7345 42.4427 16.7138 42.5394 16.6738C42.6361 16.6337 42.7239 16.575 42.7979 16.501L46.7822 12.5166C46.8563 12.4426 46.915 12.3548 46.955 12.2581C46.9951 12.1615 47.0157 12.0578 47.0157 11.9532C47.0157 11.8486 46.9951 11.7449 46.955 11.6483C46.915 11.5516 46.8563 11.4638 46.7822 11.3898L42.7979 7.40541C42.6484 7.25596 42.4458 7.17197 42.2344 7.17193H26.7125C25.8638 5.54271 24.5969 4.16857 23.0419 3.19045C21.487 2.21234 19.6998 1.66546 17.8637 1.60591C16.0276 1.54635 14.2088 1.97627 12.5936 2.85156C10.9785 3.72684 9.62533 5.016 8.67281 6.5868C7.72029 8.15759 7.20274 9.95349 7.17326 11.7903C7.14377 13.6271 7.60341 15.4387 8.50502 17.0392C9.40664 18.6398 10.7178 19.9717 12.304 20.8984C13.8901 21.8251 15.6943 22.3131 17.5313 22.3126ZM17.5313 3.18755C19.2077 3.19235 20.8478 3.67636 22.2583 4.5825C23.6687 5.48865 24.7907 6.77916 25.4919 8.3019C25.5556 8.44033 25.6577 8.55759 25.7861 8.63978C25.9144 8.72198 26.0636 8.76567 26.216 8.76568H41.9045L45.092 11.9532L42.2344 14.8107L40.4072 12.9835C40.3332 12.9095 40.2454 12.8508 40.1487 12.8107C40.052 12.7706 39.9484 12.75 39.8438 12.75C39.7391 12.75 39.6355 12.7706 39.5388 12.8107C39.4422 12.8508 39.3543 12.9095 39.2804 12.9835L37.4532 14.8107L35.6259 12.9835C35.552 12.9095 35.4641 12.8508 35.3675 12.8107C35.2708 12.7706 35.1672 12.75 35.0625 12.75C34.9579 12.75 34.8543 12.7706 34.7576 12.8107C34.6609 12.8508 34.5731 12.9095 34.4991 12.9835L32.342 15.1407H26.216C26.0636 15.1407 25.9144 15.1844 25.7861 15.2666C25.6577 15.3488 25.5556 15.466 25.4919 15.6045C24.8359 17.0341 23.8071 18.2607 22.5136 19.1557C21.22 20.0507 19.7094 20.5809 18.1403 20.6908C16.5712 20.8008 15.0015 20.4863 13.5958 19.7804C12.1901 19.0745 11.0004 18.0033 10.1515 16.6791C9.30251 15.3549 8.82566 13.8266 8.77096 12.2546C8.71627 10.6826 9.08573 9.12488 9.84058 7.74489C10.5954 6.3649 11.7078 5.21355 13.061 4.41167C14.4143 3.6098 15.9584 3.18696 17.5313 3.18755ZM14.3438 15.9376C15.1318 15.9376 15.9022 15.7039 16.5574 15.2661C17.2126 14.8283 17.7233 14.206 18.0249 13.4779C18.3265 12.7499 18.4054 11.9488 18.2516 11.1759C18.0979 10.403 17.7184 9.69302 17.1612 9.1358C16.604 8.57857 15.894 8.1991 15.1211 8.04536C14.3482 7.89162 13.5471 7.97053 12.8191 8.27209C12.091 8.57366 11.4687 9.08435 11.0309 9.73958C10.5931 10.3948 10.3594 11.1651 10.3594 11.9532C10.3607 13.0095 10.7809 14.0222 11.5278 14.7692C12.2747 15.5161 13.2875 15.9363 14.3438 15.9376ZM14.3438 9.56255C14.8166 9.56255 15.2788 9.70276 15.672 9.96545C16.0651 10.2281 16.3715 10.6015 16.5525 11.0383C16.7334 11.4752 16.7807 11.9558 16.6885 12.4196C16.5963 12.8833 16.3686 13.3093 16.0342 13.6436C15.6999 13.9779 15.2739 14.2056 14.8102 14.2979C14.3465 14.3901 13.8658 14.3428 13.429 14.1618C12.9921 13.9809 12.6188 13.6745 12.3561 13.2813C12.0934 12.8882 11.9532 12.426 11.9532 11.9532C11.9539 11.3194 12.206 10.7117 12.6541 10.2635C13.1023 9.81534 13.71 9.56324 14.3438 9.56255Z" fill="black"/>
</g>
</g>
</svg>
