<svg width="51" height="51" viewBox="0 0 51 51" fill="none" xmlns="http://www.w3.org/2000/svg">
<g id="speedometer">
<path id="Vector" d="M25.5 3.49426C20.6721 3.49464 15.9527 4.92678 11.9388 7.60957C7.92481 10.2924 4.79664 14.1053 2.94989 18.5661C1.10313 23.0268 0.620758 27.9351 1.56377 32.6701C2.50679 37.405 4.83283 41.754 8.2477 45.1668C8.32178 45.2415 8.40991 45.3008 8.50702 45.3413C8.60412 45.3817 8.70828 45.4026 8.81348 45.4026C8.91867 45.4026 9.02283 45.3817 9.11994 45.3413C9.21704 45.3008 9.30518 45.2415 9.37926 45.1668L12.5986 41.9515C12.6727 41.8774 12.7314 41.7895 12.7715 41.6928C12.8115 41.596 12.8322 41.4924 12.8322 41.3877C12.8322 41.283 12.8115 41.1793 12.7715 41.0825C12.7314 40.9858 12.6727 40.8979 12.5986 40.8239C12.5246 40.7498 12.4367 40.6911 12.34 40.651C12.2432 40.611 12.1396 40.5903 12.0348 40.5903C11.9301 40.5903 11.8265 40.611 11.7297 40.651C11.633 40.6911 11.5451 40.7498 11.4711 40.8239L8.82145 43.4735C5.05041 39.4536 2.87452 34.1966 2.70145 28.6875H6.37504C6.58638 28.6875 6.78907 28.6035 6.93852 28.4541C7.08796 28.3046 7.17191 28.1019 7.17191 27.8906C7.17191 27.6792 7.08796 27.4766 6.93852 27.3271C6.78907 27.1777 6.58638 27.0937 6.37504 27.0937H2.70145C2.89551 21.6014 5.0708 16.3648 8.82543 12.3515L11.4591 14.9892C11.5314 15.0693 11.6193 15.1339 11.7174 15.179C11.8154 15.2242 11.9216 15.2489 12.0295 15.2517C12.1375 15.2546 12.2448 15.2355 12.3451 15.1956C12.4454 15.1557 12.5366 15.0958 12.613 15.0196C12.6895 14.9434 12.7497 14.8525 12.7899 14.7523C12.8302 14.6522 12.8497 14.5449 12.8472 14.437C12.8448 14.329 12.8204 14.2227 12.7756 14.1245C12.7308 14.0263 12.6665 13.9382 12.5867 13.8656L9.96098 11.224C13.9732 7.46883 19.211 5.29587 24.7032 5.10794V8.76559C24.7032 8.97694 24.7871 9.17962 24.9366 9.32907C25.086 9.47851 25.2887 9.56247 25.5 9.56247C25.7114 9.56247 25.9141 9.47851 26.0635 9.32907C26.213 9.17962 26.2969 8.97694 26.2969 8.76559V5.10794C31.7896 5.29696 37.0274 7.47136 41.0391 11.2279L38.4134 13.8656C38.3394 13.9396 38.2806 14.0275 38.2406 14.1243C38.2005 14.221 38.1799 14.3247 38.1799 14.4294C38.1799 14.5341 38.2005 14.6378 38.2406 14.7345C38.2806 14.8312 38.3394 14.9191 38.4134 14.9932C38.4874 15.0672 38.5753 15.1259 38.6721 15.166C38.7688 15.2061 38.8725 15.2267 38.9772 15.2267C39.0819 15.2267 39.1856 15.2061 39.2823 15.166C39.379 15.1259 39.4669 15.0672 39.541 14.9932L42.1786 12.3515C45.9318 16.3654 48.1057 21.6019 48.2986 27.0937H44.625C44.4137 27.0937 44.211 27.1777 44.0616 27.3271C43.9121 27.4766 43.8282 27.6792 43.8282 27.8906C43.8282 28.1019 43.9121 28.3046 44.0616 28.4541C44.211 28.6035 44.4137 28.6875 44.625 28.6875H48.2986C48.1255 34.1919 45.9542 39.4451 42.1906 43.4655L39.537 40.8159C39.4644 40.736 39.3763 40.6718 39.2781 40.627C39.1798 40.5822 39.0735 40.5578 38.9656 40.5554C38.8577 40.5529 38.7504 40.5724 38.6503 40.6126C38.5501 40.6529 38.4592 40.7131 38.383 40.7896C38.3068 40.866 38.2469 40.9572 38.207 41.0575C38.1671 41.1578 38.148 41.2651 38.1508 41.373C38.1537 41.4809 38.1784 41.5872 38.2236 41.6852C38.2687 41.7833 38.3333 41.8711 38.4134 41.9435L41.6368 45.1629C41.7108 45.2369 41.7987 45.2957 41.8954 45.3358C41.9921 45.3759 42.0958 45.3966 42.2006 45.3966C42.3053 45.3966 42.409 45.3759 42.5057 45.3358C42.6024 45.2957 42.6903 45.2369 42.7643 45.1629C46.1786 41.7491 48.5036 37.3994 49.4455 32.664C50.3873 27.9286 49.9036 23.0202 48.0556 18.5598C46.2075 14.0993 43.0781 10.2872 39.0632 7.60547C35.0482 4.92378 30.3282 3.49306 25.5 3.49426Z" fill="black"/>
<path id="Vector_2" d="M25.4999 23.1731C24.5213 23.1715 23.5669 23.4767 22.7706 24.0457L16.8379 18.1129C16.6884 17.9634 16.4856 17.8794 16.2741 17.8794C16.0627 17.8794 15.8599 17.9634 15.7103 18.1129C15.5608 18.2625 15.4768 18.4653 15.4768 18.6767C15.4768 18.8882 15.5608 19.091 15.7103 19.2405L21.6431 25.1732C21.0295 26.0377 20.7242 27.0833 20.7761 28.1421C20.828 29.2009 21.2341 30.2115 21.9293 31.0119C22.6244 31.8122 23.5683 32.3558 24.6094 32.5554C25.6505 32.755 26.7285 32.599 27.6704 32.1125C28.6122 31.626 29.3633 30.8372 29.8031 29.8727C30.2429 28.9081 30.3459 27.8238 30.0956 26.7937C29.8453 25.7636 29.2561 24.8475 28.4228 24.1924C27.5894 23.5372 26.56 23.1811 25.4999 23.181V23.1731ZM25.4999 31.0422C24.8795 31.0422 24.2729 30.8584 23.7569 30.5139C23.2408 30.1694 22.8384 29.6798 22.6004 29.1068C22.3624 28.5338 22.2996 27.9031 22.4197 27.2944C22.5399 26.6857 22.8378 26.1262 23.2757 25.6867C23.7136 25.2471 24.2719 24.9471 24.8801 24.8246C25.4884 24.7021 26.1193 24.7626 26.6932 24.9984C27.2671 25.2342 27.7583 25.6348 28.1047 26.1495C28.4511 26.6643 28.6373 27.2701 28.6396 27.8906C28.6407 28.3037 28.5603 28.7131 28.403 29.0951C28.2457 29.4772 28.0147 29.8245 27.7231 30.1172C27.4315 30.4099 27.0851 30.6423 26.7036 30.801C26.3221 30.9597 25.9131 31.0417 25.4999 31.0422Z" fill="black"/>
</g>
</svg>
