<svg width="51" height="51" viewBox="0 0 51 51" fill="none" xmlns="http://www.w3.org/2000/svg">
<g id="transmission" clip-path="url(#clip0_45_500)">
<g id="Group">
<g id="Group_2">
<path id="Vector" d="M35.7001 15.3H42.5001C43.4373 15.3 44.2002 14.5376 44.2002 13.6V1.70003C44.2001 0.76241 43.4373 0 42.5001 0H35.7001C34.763 0 34.0001 0.76241 34.0001 1.70003V6.80003H28.7794C28.3992 5.33777 27.08 4.25003 25.5001 4.25003C23.9202 4.25003 22.6009 5.33777 22.2209 6.80003H17.0001V1.70003C17.0001 0.76241 16.2372 0 15.3001 0H8.50008C7.56296 0 6.80005 0.76241 6.80005 1.70003V13.6001C6.80005 14.5377 7.56286 15.3001 8.50008 15.3001H15.3001C16.2372 15.3001 17.0001 14.5377 17.0001 13.6001V8.50007H22.2209C22.53 9.689 23.461 10.6203 24.6501 10.9294V39.1001H22.1001C21.6303 39.1001 21.2502 39.4807 21.2502 39.95V42.5H17.0001V37.4C17.0001 36.4624 16.2373 35.7 15.3001 35.7H8.50008C7.56296 35.7 6.80005 36.4624 6.80005 37.4V49.3001C6.80005 50.2377 7.56286 51.0001 8.50008 51.0001H15.3001C16.2372 51.0001 17.0001 50.2377 17.0001 49.3001V44.2001H22.1001H28.9002H34.0002V49.3001C34.0002 50.2377 34.763 51.0001 35.7002 51.0001H42.5002C43.4374 51.0001 44.2003 50.2377 44.2003 49.3001V37.4C44.2003 36.4624 43.4375 35.7 42.5002 35.7H35.7001C34.763 35.7 34.0001 36.4624 34.0001 37.4V42.5H29.75V39.95C29.75 39.4806 29.3698 39.1001 28.9001 39.1001H26.3501V10.9293C27.5392 10.6203 28.4703 9.689 28.7794 8.49997H34.0001V13.6C34.0001 14.5376 34.763 15.3 35.7001 15.3ZM35.7001 1.70003H42.5001L42.5009 13.6001H35.7001V1.70003ZM8.50008 13.6V1.70003H15.3001L15.3005 7.64801C15.3005 7.64871 15.3001 7.6494 15.3001 7.6501C15.3001 7.6508 15.3005 7.65149 15.3005 7.65219L15.3009 13.6002H8.50008V13.6ZM8.50008 49.3V37.4H15.3001L15.3005 43.348C15.3005 43.3487 15.3001 43.3494 15.3001 43.3501C15.3001 43.3508 15.3005 43.3515 15.3005 43.3522L15.3009 49.3001L8.50008 49.3ZM35.7001 37.4H42.5001L42.5009 49.3001H35.7001V37.4ZM28.0501 40.8V42.5H22.9501V40.8H28.0501ZM25.5001 9.35003C24.563 9.35003 23.8001 8.58762 23.8001 7.65C23.8001 6.71238 24.563 5.94997 25.5001 5.94997C26.4372 5.94997 27.2001 6.71238 27.2001 7.65C27.2001 8.58762 26.4372 9.35003 25.5001 9.35003Z" fill="black"/>
</g>
</g>
</g>
<defs>
<clipPath id="clip0_45_500">
<rect width="51" height="51" fill="white"/>
</clipPath>
</defs>
</svg>
