<svg width="44" height="44" viewBox="0 0 44 44" fill="none" xmlns="http://www.w3.org/2000/svg">
<g id="verify" clip-path="url(#clip0_45_464)">
<path id="Vector" d="M32.0833 44C25.5126 44 20.1666 38.654 20.1666 32.0834C20.1666 25.5127 25.5126 20.1667 32.0833 20.1667C38.654 20.1667 44 25.5127 44 32.0834C44 38.654 38.654 44 32.0833 44ZM32.0833 22C26.5228 22 22 26.5247 22 32.0834C22 37.642 26.5228 42.1667 32.0833 42.1667C37.6438 42.1667 42.1666 37.642 42.1666 32.0834C42.1666 26.5247 37.6438 22 32.0833 22Z" fill="black"/>
<path id="Vector_2" d="M30.2501 36.6667C30.0081 36.6667 29.7734 36.5695 29.6011 36.399L25.9344 32.7323C25.5769 32.3748 25.5769 31.7937 25.9344 31.4362C26.2919 31.0787 26.8731 31.0787 27.2306 31.4362L30.2042 34.4098L35.9755 27.8135C36.3092 27.4303 36.8886 27.3937 37.2699 27.7273C37.6512 28.061 37.6897 28.6385 37.3561 29.0198L30.9394 36.3532C30.7726 36.5438 30.5324 36.6575 30.2794 36.6667C30.2702 36.6667 30.2592 36.6667 30.2501 36.6667Z" fill="black"/>
<path id="Vector_3" d="M17.4167 38.5H4.58333C2.057 38.5 0 36.4448 0 33.9167V10.0833C0 7.55517 2.057 5.5 4.58333 5.5H8.25C8.756 5.5 9.16667 5.91067 9.16667 6.41667C9.16667 6.92267 8.756 7.33333 8.25 7.33333H4.58333C3.06717 7.33333 1.83333 8.56717 1.83333 10.0833V33.9167C1.83333 35.4328 3.06717 36.6667 4.58333 36.6667H17.4167C17.9227 36.6667 18.3333 37.0773 18.3333 37.5833C18.3333 38.0893 17.9227 38.5 17.4167 38.5Z" fill="black"/>
<path id="Vector_4" d="M30.25 16.5C29.744 16.5 29.3333 16.0893 29.3333 15.5833V10.0833C29.3333 8.56717 28.0995 7.33333 26.5833 7.33333H22.9167C22.4107 7.33333 22 6.92267 22 6.41667C22 5.91067 22.4107 5.5 22.9167 5.5H26.5833C29.1097 5.5 31.1667 7.55517 31.1667 10.0833V15.5833C31.1667 16.0893 30.756 16.5 30.25 16.5Z" fill="black"/>
<path id="Vector_5" d="M21.0834 11H10.0834C8.56721 11 7.33337 9.76617 7.33337 8.25V4.58333C7.33337 4.07733 7.74404 3.66667 8.25004 3.66667H11.0917C11.5189 1.57667 13.3687 0 15.5834 0C17.798 0 19.6479 1.57667 20.075 3.66667H22.9167C23.4227 3.66667 23.8334 4.07733 23.8334 4.58333V8.25C23.8334 9.76617 22.5995 11 21.0834 11ZM9.16671 5.5V8.25C9.16671 8.75417 9.57737 9.16667 10.0834 9.16667H21.0834C21.5894 9.16667 22 8.75417 22 8.25V5.5H19.25C18.744 5.5 18.3334 5.08933 18.3334 4.58333C18.3334 3.06717 17.0995 1.83333 15.5834 1.83333C14.0672 1.83333 12.8334 3.06717 12.8334 4.58333C12.8334 5.08933 12.4227 5.5 11.9167 5.5H9.16671Z" fill="black"/>
<path id="Vector_6" d="M24.75 16.5H6.41667C5.91067 16.5 5.5 16.0894 5.5 15.5834C5.5 15.0774 5.91067 14.6667 6.41667 14.6667H24.75C25.256 14.6667 25.6667 15.0774 25.6667 15.5834C25.6667 16.0894 25.256 16.5 24.75 16.5Z" fill="black"/>
<path id="Vector_7" d="M19.25 22H6.41667C5.91067 22 5.5 21.5894 5.5 21.0834C5.5 20.5774 5.91067 20.1667 6.41667 20.1667H19.25C19.756 20.1667 20.1667 20.5774 20.1667 21.0834C20.1667 21.5894 19.756 22 19.25 22Z" fill="black"/>
<path id="Vector_8" d="M15.5833 27.5H6.41667C5.91067 27.5 5.5 27.0894 5.5 26.5834C5.5 26.0774 5.91067 25.6667 6.41667 25.6667H15.5833C16.0893 25.6667 16.5 26.0774 16.5 26.5834C16.5 27.0894 16.0893 27.5 15.5833 27.5Z" fill="black"/>
</g>
<defs>
<clipPath id="clip0_45_464">
<rect width="44" height="44" fill="white"/>
</clipPath>
</defs>
</svg>
