<svg width="60" height="60" viewBox="0 0 60 60" fill="none" xmlns="http://www.w3.org/2000/svg">
<g id="body-repair">
<g id="_x31_6364_-_Car_Body_Repair">
<g id="Group">
<g id="Group_2">
<path id="Vector" d="M36.5746 41.3552C36.565 41.3552 36.5555 41.3552 36.5458 41.3551C33.0279 41.323 29.4311 41.3271 25.9528 41.3309C24.7678 41.3323 23.5789 41.3335 22.3849 41.3335C21.9846 41.3335 21.6356 41.0612 21.5383 40.6728C20.6426 37.0977 18.9073 35.4748 16.2352 35.7113C13.7403 35.9321 12.6227 38.8875 12.1784 40.6295C12.0799 41.0161 11.7317 41.2866 11.3328 41.2866H3.15183C2.69932 41.2866 2.32187 40.9407 2.28237 40.4899C2.26252 40.2627 2.23546 40.0208 2.20688 39.7648C2.12834 39.0619 2.04706 38.335 2.08296 37.67C2.13106 36.7783 2.36419 35.5776 3.20179 34.9213C3.5379 34.6579 4.11325 34.3771 4.94528 34.5349C5.28226 34.5988 5.42376 34.5487 5.44077 34.533C5.44219 34.5316 5.5803 34.3705 5.50317 33.7299C5.48354 33.5672 5.48834 33.4206 5.49216 33.3028C5.49336 33.2665 5.49466 33.2303 5.49466 33.1942C5.49521 32.2325 5.49586 31.3232 5.39561 31.0847C5.25303 31.0183 4.8027 30.9565 4.40288 30.9018C4.13943 30.8657 3.84085 30.8248 3.49579 30.7693C3.08016 30.7027 2.77143 30.3488 2.76172 29.928C2.73499 28.7768 2.79336 28.0903 3.18685 27.5331C3.65746 26.8665 4.43616 26.6852 5.26012 26.5446L5.63659 26.4797C6.34557 26.3567 7.07866 26.2295 7.82277 26.1663C8.97445 26.0685 9.99881 25.5529 11.3585 24.387C19.3378 17.5446 28.2229 16.8081 37.7676 22.1979C39.3017 23.0641 40.6757 24.2567 42.0046 25.41C42.6728 25.9901 43.3639 26.5899 44.0548 27.1283C44.6139 27.564 44.9792 27.6925 45.1872 27.7236C45.6718 27.7961 46.2442 27.8656 46.8502 27.9392C49.2671 28.2327 52.275 28.598 54.1586 29.6311C54.3638 29.7436 54.5152 29.9337 54.5788 30.1588C54.6424 30.3839 54.613 30.6251 54.4972 30.8285C54.0812 31.5581 54.277 32.5164 54.5144 33.1919C55.0464 34.7051 56.1076 35.8278 56.4242 35.953C57.5812 36.3063 58.0744 37.1576 57.8822 38.4809C57.8709 38.558 57.8605 38.6382 57.8496 38.7203C57.7406 39.5465 57.5139 41.2655 55.8508 41.3043C54.0823 41.3452 52.2879 41.3372 50.5523 41.3295C49.8435 41.3263 49.1341 41.323 48.424 41.323C48.0133 41.323 47.6581 41.0367 47.5711 40.6352C46.9006 37.5428 45.4956 35.9263 43.2761 35.6933C41.1616 35.4728 39.2224 37.0854 38.5583 39.6176C38.3986 40.226 38.1024 41.3551 36.5746 41.3552ZM29.4398 39.5829C31.8086 39.5829 34.2017 39.5883 36.5617 39.6096C36.6443 39.6113 36.6982 39.6045 36.727 39.5995C36.7522 39.5528 36.8003 39.44 36.8698 39.1749C37.7579 35.7893 40.4657 33.6442 43.4582 33.9575C45.4335 34.1648 47.9677 35.3239 49.1105 39.5784C49.594 39.5796 50.0771 39.5818 50.56 39.584C52.2836 39.5915 54.0659 39.5997 55.8102 39.5591C55.8467 39.5583 55.861 39.553 55.8612 39.553C55.994 39.4402 56.0816 38.7757 56.1191 38.492C56.1308 38.4021 56.1425 38.3143 56.1547 38.23C56.2291 37.7182 56.186 37.705 55.9066 37.6197C54.8263 37.2898 53.5685 35.5515 52.9766 34.0614C52.5059 32.8763 52.3897 31.7816 52.628 30.8422C50.9934 30.2005 48.6077 29.9108 46.6397 29.6718C46.0215 29.5967 45.4374 29.5258 44.9292 29.4498C44.3174 29.3584 43.6804 29.0493 42.9818 28.5049C42.2545 27.9381 41.5457 27.3231 40.8603 26.7281C39.5387 25.5809 38.2902 24.4974 36.9092 23.7175C28.0716 18.727 19.8572 19.398 12.4946 25.7117C11.3366 26.7047 9.89354 27.7419 7.97037 27.9052C7.30208 27.962 6.63794 28.0772 5.93485 28.1992L5.55346 28.2649C4.81448 28.3909 4.6467 28.4911 4.61256 28.5396C4.54786 28.6312 4.5195 28.8849 4.50816 29.1541C4.55299 29.1604 4.59685 29.1664 4.63972 29.1723C5.68852 29.3159 6.44627 29.4198 6.89136 30.1807C7.24165 30.7797 7.24121 31.5363 7.24012 33.194C7.24012 33.2498 7.23848 33.3046 7.23663 33.3594C7.23456 33.4208 7.23237 33.4904 7.23597 33.5207C7.35979 34.5486 7.15677 35.3181 6.63248 35.808C6.29834 36.1201 5.67816 36.4505 4.61976 36.2495C4.39154 36.2062 4.31506 36.2661 4.2783 36.295C4.09852 36.4359 3.87205 36.9052 3.82568 37.7638C3.79808 38.2763 3.86845 38.9179 3.93805 39.541H10.6695C11.6894 36.1615 13.5947 34.1926 16.0812 33.9725C18.4679 33.7603 21.5667 34.5901 23.0509 39.5878C24.0205 39.5874 24.9869 39.5863 25.9508 39.5853C27.1032 39.5841 28.2685 39.5829 29.4398 39.5829Z" fill="black"/>
</g>
<g id="Group_3">
<path id="Vector_2" d="M28.0521 29.7042C27.6118 29.7042 27.2575 29.573 26.9982 29.3138C26.5728 28.8885 26.5857 28.2823 26.59 28.0832C26.6144 26.9452 26.6141 25.9163 26.589 24.9377C26.5795 24.5679 26.615 24.0321 27.0303 23.6505C27.3241 23.3805 27.7249 23.2713 28.2218 23.3263C30.5258 23.5811 32.7204 24.5346 35.1283 26.3269C35.6415 26.7089 36.0264 27.0208 36.3763 27.3381C36.6082 27.5485 36.7164 27.8043 36.7954 27.9911C36.8142 28.0355 36.8336 28.0813 36.8469 28.107C37.056 28.5113 36.9193 29.0084 36.5328 29.2489C36.5188 29.2579 36.4805 29.288 36.4527 29.3101C36.2809 29.4456 35.9933 29.6721 35.5848 29.6804C34.6097 29.7001 33.6228 29.698 32.6684 29.6958C32.3572 29.6951 32.0416 29.6942 31.7352 29.6945C31.3908 29.6945 31.0464 29.6931 30.7017 29.6918C29.8477 29.6884 28.9646 29.6849 28.102 29.7038C28.0852 29.704 28.0685 29.7042 28.0521 29.7042ZM28.3387 25.1005C28.3585 25.9957 28.3584 26.9328 28.3384 27.9533C29.1334 27.9398 29.9328 27.9431 30.7086 27.9462C31.06 27.9476 31.4154 27.9492 31.7622 27.9489H31.7624C32.0656 27.9489 32.3689 27.9496 32.672 27.9503C33.2336 27.9515 33.8069 27.9527 34.3804 27.9495C34.2876 27.8781 34.1898 27.8042 34.0858 27.7268C32.0489 26.2107 30.2136 25.3706 28.3387 25.1005Z" fill="black"/>
</g>
<g id="Group_4">
<path id="Vector_3" d="M22.7833 29.708C22.7433 29.708 22.7026 29.7069 22.6613 29.7046C22.1347 29.6758 21.6077 29.6821 21.0497 29.6888C20.8091 29.6917 20.5686 29.6945 20.3281 29.6945C20.3275 29.6945 20.3267 29.6945 20.3259 29.6945C20.0978 29.6945 19.8696 29.6919 19.6415 29.6892C19.1143 29.683 18.6163 29.6771 18.1189 29.7036C17.4214 29.7404 16.5653 29.4883 16.4445 28.0754C16.3291 26.7232 16.8179 25.7513 17.9391 25.1041C19.5835 24.1547 21.0263 23.594 22.4799 23.3393C23.0151 23.2455 23.4519 23.3411 23.7778 23.6233C24.2431 24.0262 24.2801 24.6374 24.2673 25.0621C24.2413 25.9276 24.2408 26.8564 24.2657 27.9853C24.2741 28.3682 24.2374 28.9236 23.8233 29.3243C23.5598 29.5791 23.2104 29.708 22.7833 29.708ZM22.5198 25.1084C21.3578 25.3477 20.1717 25.8307 18.8119 26.6157C18.344 26.8858 18.1185 27.1628 18.1837 27.9268C18.1845 27.9359 18.1853 27.9446 18.186 27.953C18.6858 27.9323 19.1813 27.9382 19.6621 27.9439C19.8841 27.9465 20.1035 27.9496 20.328 27.9491C20.5615 27.9491 20.795 27.9463 21.0285 27.9434C21.5144 27.9375 22.0147 27.9316 22.5189 27.9506C22.496 26.8658 22.4962 25.9576 22.5198 25.1084Z" fill="black"/>
</g>
<g id="Group_5">
<path id="Vector_4" d="M29.4915 35.5317C29.0542 35.5317 28.6767 35.2035 28.6256 34.7586C28.5705 34.2796 28.914 33.847 29.3929 33.7919C30.1802 33.7014 30.8836 33.6969 31.5429 33.7785C32.0212 33.8376 32.361 34.2733 32.3019 34.7517C32.2428 35.23 31.8068 35.5691 31.3287 35.5107C30.8081 35.4464 30.2402 35.4513 29.5923 35.5259C29.5585 35.5297 29.5249 35.5317 29.4915 35.5317Z" fill="black"/>
</g>
</g>
</g>
</g>
</svg>
