<svg width="52" height="52" viewBox="0 0 52 52" fill="none" xmlns="http://www.w3.org/2000/svg">
<g id="calendar">
<g id="g99">
<g id="g101">
<g id="Clip path group">
<mask id="mask0_45_530" style="mask-type:luminance" maskUnits="userSpaceOnUse" x="0" y="0" width="52" height="52">
<g id="clipPath107">
<path id="path105" d="M0 3.8147e-06H52V52H0V3.8147e-06Z" fill="white"/>
</g>
</mask>
<g mask="url(#mask0_45_530)">
<g id="g103">
<g id="g109">
<path id="path111" d="M48.6357 35.7263V48.1914C48.6357 49.8741 47.2715 51.2383 45.5888 51.2383H6.41125C4.72857 51.2383 3.36438 49.8741 3.36438 48.1914V43.9529" stroke="black" stroke-width="2" stroke-miterlimit="10" stroke-linecap="round" stroke-linejoin="round"/>
</g>
<g id="g113">
<path id="path115" d="M37.2999 48.1914H6.41633C4.7308 48.1914 3.36438 46.825 3.36438 45.1395V7.29463C3.36438 5.60909 4.7308 4.24267 6.41633 4.24267H45.5836C47.2692 4.24267 48.6357 5.60909 48.6357 7.29463V36.8556C48.6357 37.6651 48.3141 38.4414 47.7417 39.0137L39.458 47.2975C38.8856 47.8699 38.1093 48.1914 37.2999 48.1914Z" stroke="black" stroke-width="2" stroke-miterlimit="10" stroke-linecap="round" stroke-linejoin="round"/>
</g>
<g id="g117">
<path id="path119" d="M36.0492 48.1914C37.4302 48.1914 38.5499 47.0719 38.5499 45.6907V40.6062C38.5499 39.2252 39.6694 38.1055 41.0504 38.1055H46.1351C47.5161 38.1055 48.6356 36.986 48.6356 35.605" stroke="black" stroke-width="2" stroke-miterlimit="10" stroke-linecap="round" stroke-linejoin="round"/>
</g>
<g id="g121">
<path id="path123" d="M12.3703 15.1281H3.36438" stroke="black" stroke-width="2" stroke-miterlimit="10" stroke-linecap="round" stroke-linejoin="round"/>
</g>
<g id="g125">
<path id="path127" d="M48.6357 15.1281H15.4172" stroke="black" stroke-width="2" stroke-miterlimit="10" stroke-linecap="round" stroke-linejoin="round"/>
</g>
<g id="g129">
<path id="path131" d="M11.9894 8.79858C11.1308 8.79858 10.4348 8.10258 10.4348 7.24397V2.31626C10.4348 1.45765 11.1308 0.761639 11.9894 0.761639H12.3391C13.1977 0.761639 13.8937 1.45765 13.8937 2.31626V4.24259" stroke="black" stroke-width="2" stroke-miterlimit="10" stroke-linecap="round" stroke-linejoin="round"/>
</g>
<g id="g133">
<path id="path135" d="M39.6609 8.79858C38.8023 8.79858 38.1063 8.10258 38.1063 7.24397V2.31626C38.1063 1.45765 38.8023 0.761639 39.6609 0.761639H40.0106C40.8692 0.761639 41.5652 1.45765 41.5652 2.31626V4.24259" stroke="black" stroke-width="2" stroke-miterlimit="10" stroke-linecap="round" stroke-linejoin="round"/>
</g>
<g id="g137">
<path id="path139" d="M12.2875 24.7765H8.66028C8.25961 24.7765 7.93481 24.4517 7.93481 24.051V20.4238C7.93481 20.0232 8.25961 19.6984 8.66028 19.6984H12.2875C12.6881 19.6984 13.0129 20.0232 13.0129 20.4238V24.051C13.0129 24.4517 12.6881 24.7765 12.2875 24.7765Z" stroke="black" stroke-width="2" stroke-miterlimit="10" stroke-linecap="round" stroke-linejoin="round"/>
</g>
<g id="g141">
<path id="path143" d="M22.6382 24.7765H19.011C18.6103 24.7765 18.2855 24.4517 18.2855 24.051V20.4238C18.2855 20.0232 18.6103 19.6984 19.011 19.6984H22.6382C23.0389 19.6984 23.3636 20.0232 23.3636 20.4238V24.051C23.3636 24.4517 23.0389 24.7765 22.6382 24.7765Z" stroke="black" stroke-width="2" stroke-miterlimit="10" stroke-linecap="round" stroke-linejoin="round"/>
</g>
<g id="g145">
<path id="path147" d="M32.989 24.7765H29.3618C28.9611 24.7765 28.6364 24.4517 28.6364 24.051V20.4238C28.6364 20.0232 28.9611 19.6984 29.3618 19.6984H32.989C33.3897 19.6984 33.7145 20.0232 33.7145 20.4238V24.051C33.7145 24.4517 33.3897 24.7765 32.989 24.7765Z" stroke="black" stroke-width="2" stroke-miterlimit="10" stroke-linecap="round" stroke-linejoin="round"/>
</g>
<g id="g149">
<path id="path151" d="M43.34 24.7765H39.7128C39.3121 24.7765 38.9873 24.4517 38.9873 24.051V20.4238C38.9873 20.0232 39.3121 19.6984 39.7128 19.6984H43.34C43.7406 19.6984 44.0654 20.0232 44.0654 20.4238V24.051C44.0654 24.4517 43.7406 24.7765 43.34 24.7765Z" stroke="black" stroke-width="2" stroke-miterlimit="10" stroke-linecap="round" stroke-linejoin="round"/>
</g>
<g id="g153">
<path id="path155" d="M12.2875 34.1989H8.66028C8.25961 34.1989 7.93481 33.8741 7.93481 33.4734V29.8462C7.93481 29.4455 8.25961 29.1207 8.66028 29.1207H12.2875C12.6881 29.1207 13.0129 29.4455 13.0129 29.8462V33.4734C13.0129 33.8741 12.6881 34.1989 12.2875 34.1989Z" stroke="black" stroke-width="2" stroke-miterlimit="10" stroke-linecap="round" stroke-linejoin="round"/>
</g>
<g id="g157">
<path id="path159" d="M22.6382 34.1989H19.011C18.6103 34.1989 18.2855 33.8741 18.2855 33.4734V29.8462C18.2855 29.4455 18.6103 29.1207 19.011 29.1207H22.6382C23.0389 29.1207 23.3636 29.4455 23.3636 29.8462V33.4734C23.3636 33.8741 23.0389 34.1989 22.6382 34.1989Z" stroke="black" stroke-width="2" stroke-miterlimit="10" stroke-linecap="round" stroke-linejoin="round"/>
</g>
<g id="g161">
<path id="path163" d="M32.989 34.1989H29.3618C28.9611 34.1989 28.6364 33.8741 28.6364 33.4734V29.8462C28.6364 29.4455 28.9611 29.1207 29.3618 29.1207H32.989C33.3897 29.1207 33.7145 29.4455 33.7145 29.8462V33.4734C33.7145 33.8741 33.3897 34.1989 32.989 34.1989Z" stroke="black" stroke-width="2" stroke-miterlimit="10" stroke-linecap="round" stroke-linejoin="round"/>
</g>
<g id="g165">
<path id="path167" d="M43.34 34.4249H39.7128C39.3121 34.4249 38.9873 34.1001 38.9873 33.6995V30.0723C38.9873 29.6716 39.3121 29.3468 39.7128 29.3468H43.34C43.7406 29.3468 44.0654 29.6716 44.0654 30.0723V33.6995C44.0654 34.1001 43.7406 34.4249 43.34 34.4249Z" stroke="black" stroke-width="2" stroke-miterlimit="10" stroke-linecap="round" stroke-linejoin="round"/>
</g>
<g id="g169">
<path id="path171" d="M12.2875 43.6211H8.66028C8.25961 43.6211 7.93481 43.2963 7.93481 42.8956V39.2684C7.93481 38.8678 8.25961 38.543 8.66028 38.543H12.2875C12.6881 38.543 13.0129 38.8678 13.0129 39.2684V42.8956C13.0129 43.2963 12.6881 43.6211 12.2875 43.6211Z" stroke="black" stroke-width="2" stroke-miterlimit="10" stroke-linecap="round" stroke-linejoin="round"/>
</g>
<g id="g173">
<path id="path175" d="M22.6382 43.6211H19.011C18.6103 43.6211 18.2855 43.2963 18.2855 42.8956V39.2684C18.2855 38.8678 18.6103 38.543 19.011 38.543H22.6382C23.0389 38.543 23.3636 38.8678 23.3636 39.2684V42.8956C23.3636 43.2963 23.0389 43.6211 22.6382 43.6211Z" stroke="black" stroke-width="2" stroke-miterlimit="10" stroke-linecap="round" stroke-linejoin="round"/>
</g>
<g id="g177">
<path id="path179" d="M28.6364 40.3144V39.2684C28.6364 38.8677 28.9611 38.543 29.3618 38.543H32.989C33.3897 38.543 33.7145 38.8677 33.7145 39.2684V42.8956C33.7145 43.2963 33.3897 43.6211 32.989 43.6211H29.3618C28.9611 43.6211 28.6364 43.2963 28.6364 42.8956" stroke="black" stroke-width="2" stroke-miterlimit="10" stroke-linecap="round" stroke-linejoin="round"/>
</g>
</g>
</g>
</g>
</g>
</g>
</g>
</svg>
