<svg width="46" height="46" viewBox="0 0 46 46" fill="none" xmlns="http://www.w3.org/2000/svg">
<g id="fuel" clip-path="url(#clip0_45_479)">
<path id="Vector" d="M27.1058 40.3864C27.1861 40.9225 27.5121 41.3903 27.9872 41.651C28.4623 41.912 29.0318 41.9362 29.5272 41.7162L36.8588 38.4776C37.222 38.3176 37.4027 37.9071 37.2757 37.5309L33.5967 26.6C33.0079 24.8754 31.2528 23.8354 29.4574 24.147L28.3075 24.3533C26.3384 24.6968 25.0079 26.5558 25.3184 28.5309L27.1058 40.3864ZM28.9086 40.3134C28.8503 40.3408 28.7826 40.338 28.7268 40.3057C28.6689 40.2752 28.6293 40.218 28.6212 40.1527L26.8289 28.307C26.7921 28.0519 26.8009 27.7923 26.8552 27.5403L28.1514 28.5646C28.7774 29.0526 29.2444 29.7158 29.4928 30.4702L32.302 38.8187L28.9086 40.3134ZM28.5746 25.868L29.724 25.6617C29.8475 25.6396 29.9728 25.6287 30.0984 25.6287C31.0216 25.6312 31.8419 26.2186 32.1416 27.0919L35.5995 37.3632L33.7086 38.198L30.9451 29.9863C30.6026 28.9484 29.9598 28.0354 29.0981 27.3635L27.6928 26.2519C27.9539 26.0589 28.2553 25.9277 28.5746 25.868Z" fill="black"/>
<path id="Vector_2" d="M1.96535 7.28092L13.4114 10.6536C13.5661 10.6995 13.71 10.7764 13.8338 10.8795L17.8711 14.2431L18.522 14.7873L23.7967 42.2047C24.0634 43.5984 24.9511 44.7945 26.2083 45.4528C27.4655 46.1107 28.9543 46.1591 30.2515 45.584L37.6063 42.3348C38.3228 43.1836 39.5049 43.4734 40.533 43.0524L44.4123 41.4612C45.7186 40.9257 46.3435 39.4331 45.8088 38.1267L38.7438 20.881L39.2681 20.2754C40.246 19.1428 40.1228 17.4326 38.993 16.4515L30.9094 9.44795C30.3652 8.97672 29.6561 8.74128 28.9385 8.79321C28.2206 8.84514 27.5529 9.18023 27.082 9.72445L25.7746 11.2367L22.8364 8.78865H22.8318L17.3897 4.36195C17.1107 4.13458 16.789 3.96546 16.4437 3.86441L4.04466 0.209996C2.60886 -0.211761 1.10254 0.609297 0.679025 2.04475L0.130249 3.90827C-0.0746643 4.5988 0.00393269 5.34231 0.348146 5.9753C0.692358 6.60793 1.27412 7.07776 1.96535 7.28092ZM26.442 12.8118L28.242 10.7301C28.4466 10.4936 28.7368 10.348 29.049 10.3252C29.361 10.3027 29.6694 10.4052 29.9059 10.6097L37.9894 17.6105C38.4807 18.0368 38.534 18.7799 38.1091 19.2722L37.2768 20.2347C37.0873 20.4533 37.0368 20.76 37.1463 21.0273L44.3905 38.7039C44.6046 39.2264 44.3544 39.8236 43.8319 40.0376L39.9512 41.6282C39.7 41.731 39.4182 41.7299 39.1677 41.625C38.9175 41.5201 38.7193 41.3197 38.6165 41.0685C38.5382 40.8769 38.3859 40.725 38.1937 40.6475C38.0017 40.5699 37.7866 40.5731 37.5972 40.6569L29.6322 44.1759C28.762 44.5605 27.7641 44.5271 26.9217 44.0857C26.0788 43.6443 25.4834 42.8429 25.3038 41.9085L19.9774 14.2231C19.9437 14.0494 19.8511 13.8925 19.7153 13.7792L19.4746 13.5785L22.4111 10.4297L25.3729 12.8964C25.6936 13.1631 26.169 13.1241 26.442 12.809V12.8118ZM1.60043 4.34371L2.14781 2.47878C2.23588 2.17843 2.44009 1.9258 2.71483 1.77597C2.98957 1.6265 3.31238 1.59211 3.61238 1.68088L16.0037 5.32863C16.1539 5.37284 16.2935 5.44617 16.4146 5.54477L21.2251 9.45392L18.2956 12.5967L14.8149 9.69532C14.5307 9.45778 14.2009 9.28129 13.8454 9.17707L2.39763 5.80688C1.77342 5.62266 1.41692 4.96792 1.60043 4.34371Z" fill="black"/>
<path id="Vector_3" d="M5.36698 26.4435C6.79963 26.4758 8.18314 25.9211 9.19648 24.9077C10.2098 23.8944 10.7649 22.5109 10.7323 21.0779C10.7323 18.6344 7.76279 14.2217 6.52489 12.7936C6.22594 12.4715 5.80629 12.2887 5.36698 12.2887C4.92733 12.2887 4.50768 12.4715 4.20873 12.7936C2.97083 14.2217 0.00133405 18.6344 0.00133405 21.0779C-0.0309469 22.5109 0.523794 23.8944 1.53713 24.9077C2.55047 25.9211 3.93399 26.4758 5.36698 26.4435ZM5.36698 13.7961C6.71892 15.3554 9.19929 19.3035 9.19929 21.0779C9.23473 22.1049 8.84245 23.1003 8.11578 23.827C7.38946 24.5537 6.39366 24.946 5.36698 24.9105C4.33996 24.946 3.34451 24.5537 2.61784 23.827C1.89117 23.1003 1.49889 22.1049 1.53433 21.0779C1.53433 19.3042 4.0154 15.3561 5.36698 13.7961Z" fill="black"/>
<path id="Vector_4" d="M21.977 14.3947C21.7798 14.4452 21.6104 14.5719 21.5065 14.747C21.4026 14.9224 21.3728 15.1319 21.4237 15.3291L21.8068 16.8302C21.8939 17.1691 22.1991 17.4063 22.549 17.4067C22.6132 17.407 22.677 17.3989 22.7391 17.3828C23.1493 17.2782 23.397 16.8607 23.2925 16.4505L22.9093 14.9491C22.8591 14.7519 22.7328 14.5828 22.5581 14.4789C22.3833 14.3751 22.1742 14.3445 21.977 14.3947Z" fill="black"/>
<path id="Vector_5" d="M22.6332 19.3382L23.7196 23.9372C23.8013 24.2828 24.1101 24.5274 24.4652 24.5274C24.5248 24.5277 24.5838 24.5207 24.6417 24.5067C25.0529 24.4098 25.3083 23.9983 25.2126 23.5867L24.1266 18.9877C24.0634 18.721 23.8631 18.508 23.6006 18.4295C23.3382 18.3505 23.0536 18.4179 22.8539 18.6056C22.6546 18.7937 22.5704 19.0737 22.6332 19.3403V19.3382Z" fill="black"/>
</g>
<defs>
<clipPath id="clip0_45_479">
<rect width="46" height="46" fill="white"/>
</clipPath>
</defs>
</svg>
