<svg width="51" height="50" viewBox="0 0 51 50" fill="none" xmlns="http://www.w3.org/2000/svg">
<g id="seats">
<g id="Group">
<path id="Vector" d="M50.0039 36.4395C50.554 36.4395 51 36.0022 51 35.4629C51 34.9236 50.554 34.4863 50.0039 34.4863C49.4538 34.4863 49.0078 34.9236 49.0078 35.4629C49.0078 36.0022 49.4538 36.4395 50.0039 36.4395Z" fill="black"/>
<path id="Vector_2" d="M22.5117 35.5855V42.5781C22.5117 43.1174 22.9578 43.5547 23.5078 43.5547H27.4922C28.0422 43.5547 28.4883 43.1174 28.4883 42.5781V34.7656H45.0234V42.5781C45.0234 42.8359 45.1299 43.0869 45.3153 43.2685C45.5006 43.4501 45.7576 43.5547 46.0195 43.5547H50.0039C50.2659 43.5547 50.5229 43.4502 50.708 43.2685C50.8934 43.0869 51 42.835 51 42.5781V39.8574C51 39.3193 50.5528 38.8809 50.0039 38.8809C49.4551 38.8809 49.0078 39.3193 49.0078 39.8574V41.6016H47.0156V31.3863L49.0078 31.0449V31.0684C49.0078 31.6075 49.4551 32.0449 50.0039 32.0449C50.5528 32.0449 51 31.6075 51 31.0684V24.0234C51 23.2401 50.6892 22.5049 50.1244 21.9521C49.804 21.6375 49.4233 21.4035 49.0078 21.2599V11.3281C49.0078 8.63574 46.7736 6.44531 44.0273 6.44531H29.4844C27.8569 6.44531 26.4094 7.21465 25.5 8.40186C24.5906 7.21465 23.1431 6.44531 21.5156 6.44531H6.97266C4.22643 6.44531 1.99219 8.63574 1.99219 11.3281V21.2617C0.832834 21.6648 0 22.7504 0 24.0234V42.5781C0 43.1174 0.446051 43.5547 0.996094 43.5547H4.98047C5.53051 43.5547 5.97656 43.1174 5.97656 42.5781V38.4191L22.5117 35.5855ZM42.7586 28.112L42.4243 30.1903L39.3768 30.7126L39.7117 28.634L42.7586 28.112ZM13.7671 35.1014L14.1019 33.0228L17.1496 32.5005L16.8147 34.5791L13.7671 35.1014ZM8.6452 35.9787L8.98008 33.9005L12.0277 33.3782L11.6928 35.4568L8.6452 35.9787ZM1.99219 37.1192V35.098L6.90582 34.256L6.57093 36.3346L1.99219 37.1192ZM14.2441 19.1406C16.4524 19.1406 18.5285 19.9838 20.09 21.5148C21.6517 23.0457 22.5117 25.0812 22.5117 27.2461V29.5988L5.97656 32.4324V27.2461C5.97656 22.7767 9.68532 19.1406 14.2441 19.1406ZM25.5 23.0469C25.7658 23.0469 26.0158 23.1485 26.204 23.3332C26.3923 23.5179 26.4961 23.7629 26.4961 24.0234V28.9161L24.5039 29.2575V24.0234C24.5039 23.485 24.9508 23.0469 25.5 23.0469ZM37.6373 28.9895L37.3024 31.0682L34.2548 31.5904L34.5897 29.5118L37.6373 28.9895ZM29.1329 32.4681L29.4677 30.3897L32.5155 29.8673L32.1806 31.9459L29.8389 32.3472L29.1329 32.4681ZM22.2717 31.623L21.9368 33.7011L18.889 34.2235L19.2239 32.1455L22.2717 31.623ZM24.0109 33.3458L24.3458 31.2672L27.3935 30.7449L27.0586 32.8235L24.0109 33.3458ZM28.4883 28.5746V27.2461C28.4883 22.7767 32.197 19.1406 36.7559 19.1406C38.9641 19.1406 41.0403 19.9838 42.6017 21.5148C43.7895 22.6793 44.5805 24.1644 44.8831 25.7651L28.4883 28.5746ZM48.0117 23.0469C48.5596 23.0479 49.0068 23.4863 49.0078 24.0234V25.0583L47.0156 25.3997V24.0234C47.0166 23.4863 47.4639 23.0479 48.0117 23.0469ZM29.4844 8.39844H44.0273C45.6751 8.39844 47.0156 9.7127 47.0156 11.3281V21.2599C46.6002 21.4034 46.2194 21.6374 45.899 21.9521C45.8089 22.0404 45.7259 22.1338 45.6489 22.2308C45.2022 21.4701 44.6533 20.7639 44.0105 20.1337C42.0726 18.2338 39.4962 17.1875 36.7559 17.1875C32.9595 17.1875 29.6383 19.2195 27.8639 22.2324C27.7866 22.1348 27.7034 22.0408 27.6128 21.9521C27.2921 21.6376 26.9114 21.4037 26.4961 21.2602V11.3281C26.4961 9.7127 27.8366 8.39844 29.4844 8.39844ZM6.97266 8.39844H21.5156C23.1634 8.39844 24.5039 9.7127 24.5039 11.3281V21.2617C23.96 21.4509 23.4884 21.7902 23.1406 22.2287C22.695 21.4723 22.1457 20.768 21.4988 20.1337C19.5609 18.2338 16.9845 17.1875 14.2441 17.1875C10.4478 17.1875 7.12655 19.2195 5.35221 22.2324C5.27491 22.1348 5.19164 22.0408 5.1011 21.9521C4.78035 21.6376 4.39965 21.4037 3.98438 21.2602V11.3281C3.98438 9.7127 5.32492 8.39844 6.97266 8.39844ZM2.98828 23.0469C3.25404 23.0469 3.50416 23.1485 3.69232 23.3332C3.88068 23.5178 3.98438 23.7629 3.98438 24.0234V32.7738L1.99219 33.1152V24.0234C1.99219 23.485 2.43904 23.0469 2.98828 23.0469ZM3.98438 41.6016H1.99219V39.1019L3.98438 38.7605V41.6016ZM24.5039 41.6016V35.244L26.4961 34.9026V41.6016H24.5039ZM45.0234 32.8125H38.6947L43.4688 31.9941C43.4693 31.994 43.4698 31.9939 43.4703 31.9938L45.0234 31.7277V32.8125ZM44.4983 29.835L44.8327 27.7564L49.0078 27.0409V29.0621L44.4983 29.835Z" fill="black"/>
<path id="Vector_3" d="M14.2441 15.2344C14.7942 15.2344 15.2402 14.7971 15.2402 14.2578V11.3281C15.2402 10.7889 14.7942 10.3516 14.2441 10.3516C13.6941 10.3516 13.248 10.7889 13.248 11.3281V14.2578C13.248 14.7971 13.6941 15.2344 14.2441 15.2344Z" fill="black"/>
<path id="Vector_4" d="M34.7637 15.2344C35.3137 15.2344 35.7598 14.7971 35.7598 14.2578V11.3281C35.7598 10.7889 35.3137 10.3516 34.7637 10.3516C34.2136 10.3516 33.7676 10.7889 33.7676 11.3281V14.2578C33.7676 14.7971 34.2136 15.2344 34.7637 15.2344Z" fill="black"/>
<path id="Vector_5" d="M38.748 15.2344C39.2981 15.2344 39.7441 14.7971 39.7441 14.2578V11.3281C39.7441 10.7889 39.2981 10.3516 38.748 10.3516C38.198 10.3516 37.752 10.7889 37.752 11.3281V14.2578C37.752 14.7971 38.198 15.2344 38.748 15.2344Z" fill="black"/>
</g>
</g>
</svg>
